<svg width="32" height="32" viewBox="0 0 32 32" fill="none" xmlns="http://www.w3.org/2000/svg">
<circle cx="16" cy="16" r="16" fill="black" fill-opacity="0.06"/>
<path fill-rule="evenodd" clip-rule="evenodd" d="M12.6793 10.2088C12.9953 9.47521 13.7174 9 14.5161 9H17.8839C18.6826 9 19.4047 9.47521 19.7207 10.2088L19.9976 10.8516L20 10.8571H22C23.1046 10.8571 24 11.7526 24 12.8571V20C24 21.1046 23.1046 22 22 22H10C8.89543 22 8 21.1046 8 20V12.8571C8 11.7526 8.89543 10.8571 10 10.8571H12.4L12.4024 10.8516L12.6793 10.2088ZM19 16C19 17.6569 17.6569 19 16 19C14.3431 19 13 17.6569 13 16C13 14.3431 14.3431 13 16 13C17.6569 13 19 14.3431 19 16ZM20 16C20 18.2091 18.2091 20 16 20C13.7909 20 12 18.2091 12 16C12 13.7909 13.7909 12 16 12C18.2091 12 20 13.7909 20 16Z" fill="black"/>
</svg>
