<svg width="40" height="40" viewBox="0 0 40 40" fill="none" xmlns="http://www.w3.org/2000/svg">
<path fill-rule="evenodd" clip-rule="evenodd" d="M15 28.7967C21.6274 28.7967 27 24.2159 27 18.5651C27 12.9143 21.6274 8.3335 15 8.3335C8.37258 8.3335 3 12.9143 3 18.5651C3 20.984 3.98447 23.2068 5.63041 24.9582C5.58259 26.4997 5.37804 28.0257 4.75991 28.7966C3.85483 29.9254 6.94697 29.1023 10.1144 27.9131C11.6068 28.481 13.2601 28.7967 15 28.7967Z" fill="black"/>
<circle cx="27.0952" cy="11" r="11" fill="#F8F8F8"/>
<circle cx="27.0952" cy="11" r="8" fill="#F03D25"/>
<path d="M29.1172 9.78027C29.1172 10.1253 29.0309 10.4313 28.8584 10.6982C28.6859 10.9652 28.4482 11.1784 28.1455 11.3379C28.4906 11.5039 28.764 11.7334 28.9658 12.0264C29.1676 12.3161 29.2686 12.6579 29.2686 13.0518C29.2686 13.6833 29.0537 14.1829 28.624 14.5508C28.1943 14.9154 27.61 15.0977 26.8711 15.0977C26.1322 15.0977 25.5462 14.9137 25.1133 14.5459C24.6803 14.1781 24.4639 13.68 24.4639 13.0518C24.4639 12.6579 24.5648 12.3145 24.7666 12.0215C24.9684 11.7285 25.2402 11.5007 25.582 11.3379C25.2793 11.1784 25.0417 10.9652 24.8691 10.6982C24.6999 10.4313 24.6152 10.1253 24.6152 9.78027C24.6152 9.1748 24.8171 8.69303 25.2207 8.33496C25.6243 7.97363 26.1729 7.79297 26.8662 7.79297C27.5563 7.79297 28.1032 7.97201 28.5068 8.33008C28.9137 8.6849 29.1172 9.16829 29.1172 9.78027ZM27.8525 12.9492C27.8525 12.64 27.763 12.3926 27.584 12.207C27.4049 12.0215 27.1641 11.9287 26.8613 11.9287C26.5618 11.9287 26.3226 12.0215 26.1436 12.207C25.9645 12.3893 25.875 12.6367 25.875 12.9492C25.875 13.252 25.9629 13.4961 26.1387 13.6816C26.3145 13.8672 26.5586 13.96 26.8711 13.96C27.1771 13.96 27.4163 13.8704 27.5889 13.6914C27.7646 13.5124 27.8525 13.265 27.8525 12.9492ZM27.7061 9.84863C27.7061 9.57194 27.6328 9.35059 27.4863 9.18457C27.3398 9.0153 27.1331 8.93066 26.8662 8.93066C26.6025 8.93066 26.3975 9.01204 26.251 9.1748C26.1045 9.33757 26.0312 9.56217 26.0312 9.84863C26.0312 10.1318 26.1045 10.3597 26.251 10.5322C26.3975 10.7048 26.6042 10.791 26.8711 10.791C27.138 10.791 27.3431 10.7048 27.4863 10.5322C27.6328 10.3597 27.7061 10.1318 27.7061 9.84863Z" fill="#F7F7F7"/>
</svg>
