<svg width="40" height="40" viewBox="0 0 40 40" fill="none" xmlns="http://www.w3.org/2000/svg">
<path d="M18.8581 15.6335C18.8581 18.4312 16.6871 20.6991 14.5162 20.6991C12.3452 20.6991 10.1743 18.4312 10.1743 15.6335C10.1743 12.8359 11.6216 10.568 14.5162 10.568C17.4108 10.568 18.8581 12.8359 18.8581 15.6335Z" fill="black"/>
<path d="M29.351 14.4877C29.351 17.5184 26.9991 19.9753 24.6473 19.9753C22.2954 19.9753 19.9436 17.5184 19.9436 14.4877C19.9436 11.4569 21.5115 9 24.6473 9C27.7831 9 29.351 11.4569 29.351 14.4877Z" fill="black"/>
<path d="M33.8462 27.7336C34.0752 28.6251 33.3101 29.3827 32.3896 29.3827C30.6919 29.3827 27.8574 29.3827 24.6473 29.3827C21.4372 29.3827 18.6026 29.3827 16.905 29.3827C15.9845 29.3827 15.2193 28.6251 15.4484 27.7336C15.714 26.6998 16.2242 25.7415 16.9261 24.903C18.626 22.872 19.516 21.5432 24.6473 21.5432C29.7786 21.5432 30.6685 22.872 32.3685 24.903C33.0704 25.7415 33.5806 26.6998 33.8462 27.7336Z" fill="black"/>
<path fill-rule="evenodd" clip-rule="evenodd" d="M19.0616 21.9398C17.2088 22.4451 16.4092 23.4055 15.3649 24.66C15.2984 24.7398 15.231 24.8208 15.1622 24.903C14.4603 25.7415 13.9501 26.6998 13.6845 27.7336C13.4554 28.6251 14.2206 29.3827 15.1411 29.3827H7.49758C6.5771 29.3827 5.81191 28.6251 6.04096 27.7336C6.30657 26.6998 6.81677 25.7415 7.51864 24.903C7.58742 24.8208 7.65488 24.7398 7.72134 24.66C9.29758 22.7667 10.3162 21.5432 15.2399 21.5432C16.9013 21.5432 18.118 21.6825 19.0616 21.9398Z" fill="black"/>
</svg>
