<svg width="21" height="20" viewBox="0 0 21 20" fill="none" xmlns="http://www.w3.org/2000/svg">
<path fill-rule="evenodd" clip-rule="evenodd" d="M1 8C1 11.866 4.134 15 8 15C11.866 15 15 11.866 15 8C15 4.134 11.866 1 8 1C4.134 1 1 4.134 1 8ZM1.90735e-06 8C1.90735e-06 12.4183 3.5817 16 8 16C9.6913 16 11.26 15.4751 12.5522 14.5794L18.0397 19.1523C18.6761 19.6827 19.622 19.5967 20.1523 18.9603C20.6826 18.3239 20.5967 17.378 19.9602 16.8477L14.6612 12.4318C15.507 11.1631 16 9.6391 16 8C16 3.5817 12.4182 0 8 0C3.5817 0 1.90735e-06 3.5817 1.90735e-06 8Z" fill="black"/>
</svg>
