<svg width="24" height="24" viewBox="0 0 24 24" fill="none" xmlns="http://www.w3.org/2000/svg">
<circle cx="12" cy="12" r="12" fill="black"/>
<path fill-rule="evenodd" clip-rule="evenodd" d="M12.9592 6.07011C12.9592 5.53264 12.5235 5.09692 11.986 5.09692C11.4485 5.09692 11.0128 5.53264 11.0128 6.07011V11.0561H6.0634C5.52592 11.0561 5.09021 11.4918 5.09021 12.0293C5.09021 12.5668 5.52592 13.0025 6.0634 13.0025H11.0128V17.9885C11.0128 18.526 11.4485 18.9617 11.986 18.9617C12.5235 18.9617 12.9592 18.526 12.9592 17.9885V13.0025H17.9086C18.4461 13.0025 18.8818 12.5668 18.8818 12.0293C18.8818 11.4918 18.4461 11.0561 17.9086 11.0561H12.9592V6.07011Z" fill="white"/>
</svg>
