<svg width="360" height="360" viewBox="0 0 360 360" fill="none" xmlns="http://www.w3.org/2000/svg">
<g clip-path="url(#clip0_52_2046)">
<rect width="360" height="360" fill="#2C2B5C"/>
<ellipse cx="94" cy="144" rx="22" ry="19" fill="#FBB985"/>
<ellipse cx="263" cy="144" rx="22" ry="19" fill="#FBB985"/>
<path fill-rule="evenodd" clip-rule="evenodd" d="M178 43C147 43 95.5 54.2 95.5 125C95.6088 125 95.7165 125 95.823 125C93.9778 136.056 93.4095 147.025 94.6942 156.5C97.8942 180.1 128.361 198 143.194 204C148.028 206 161.894 210 178.694 210C195.494 210 209.361 206 214.194 204C229.028 198 259.494 180.1 262.694 156.5C263.99 146.946 263.392 135.882 261.5 124.742C261.375 54.1727 209.962 43 179 43H178Z" fill="#FFC892"/>
<path d="M247.655 75.4222C247.439 75.252 247.22 75.1101 247 75C247.178 75.1269 247.399 75.2708 247.655 75.4222Z" fill="#C4C4C4"/>
<path d="M145 95C149.4 92.6 154.5 82.6667 156.5 78C159 83.6667 165 95 169 95C173 95 178.5 82.4 178.5 78C180.5 82.6667 185.6 92.6 190 95C193 92.5 199.4 86.8 201 84C202.5 88.6667 206 98.3 208 99.5C210.833 98.1667 217 94.8 219 92C220.5 96.3334 224.5 105.7 228.5 108.5C230.5 107.667 235 105.5 237 103.5C237 108.5 237.6 119.1 240 121.5C241.833 120.833 245.8 119.2 247 118C247.833 119.667 249.7 123.2 250.5 124C251.5 125 258 117.5 252.5 99.5C254.167 101.167 258.3 104.7 261.5 105.5C259.5 101.833 255.4 94 255 92C254.527 89.6376 251.376 78.3456 247.655 75.4222C247.399 75.2708 247.178 75.1269 247 75C247.22 75.1101 247.439 75.252 247.655 75.4222C249.085 76.2649 251.626 77.3391 254 77C251.5 74.1667 246.3 67.9 245.5 65.5C244.5 62.5 235 47.5 228.5 47.5C230 47.3334 233.4 46.4 235 44C228.5 43.8334 214.6 42.8 211 40C206.5 36.5 186.5 32.5 178.5 33C177.667 33 175.6 32.5 174 30.5C174 31.7 172.333 32.6667 171.5 33C171.5 30.6 168.833 28 167.5 27C165.5 28.2 164 31.1667 163.5 32.5C162.3 32.1 161.333 31 161 30.5C159.4 32.5 157.333 33 156.5 33C148.5 32.5 128.5 36.5 124 40C120.4 42.8 106.5 43.8334 100 44C101.6 46.4 105 47.3334 106.5 47.5C100 47.5 90.5 62.5 89.5 65.5C88.7 67.9 83.5 74.1667 81 77C83.3736 77.3391 85.9149 76.2649 87.3445 75.4222C87.5612 75.252 87.7799 75.1101 88 75C87.8223 75.1269 87.6014 75.2708 87.3445 75.4222C83.6239 78.3456 80.4725 89.6376 80 92C79.6 94 75.5 101.833 73.5 105.5C76.7 104.7 80.8333 101.167 82.5 99.5C77 117.5 83.5 125 84.5 124C85.3 123.2 87.1667 119.667 88 118C89.2 119.2 93.1667 120.833 95 121.5C97.4 119.1 98 108.5 98 103.5C100 105.5 104.5 107.667 106.5 108.5C110.5 105.7 114.5 96.3334 116 92C118 94.8 124.167 98.1667 127 99.5C129 98.3 132.5 88.6667 134 84C135.6 86.8 142 92.5 145 95Z" fill="#C4C4C4"/>
<path d="M203.172 126.397L203.172 126.397L203.175 126.388C206.225 116.952 216.569 111.8 226.314 114.951C236.06 118.101 241.431 128.332 238.381 137.768L238.373 137.794L238.366 137.82C237.628 140.609 235.849 143.786 232.524 146.109C229.207 148.425 224.263 149.955 217.081 149.3C213.759 148.998 209.593 148.169 206.107 147.107C204.364 146.576 202.821 145.995 201.652 145.408C201.068 145.114 200.598 144.83 200.251 144.563C199.892 144.288 199.723 144.077 199.658 143.95C199.588 143.813 199.508 143.527 199.475 143.036C199.443 142.562 199.46 141.973 199.523 141.282C199.649 139.903 199.952 138.213 200.355 136.414C201.159 132.823 202.335 128.905 203.172 126.397Z" fill="white" stroke="#4E4848" stroke-width="2"/>
<path d="M157.025 126.397L157.025 126.397L157.023 126.388C153.972 116.952 143.628 111.8 133.883 114.951C124.138 118.101 118.766 128.332 121.816 137.768L121.824 137.794L121.831 137.82C122.569 140.609 124.348 143.786 127.673 146.109C130.99 148.425 135.934 149.955 143.116 149.3C146.438 148.998 150.604 148.169 154.09 147.107C155.833 146.576 157.376 145.995 158.545 145.408C159.13 145.114 159.599 144.83 159.947 144.563C160.305 144.288 160.474 144.077 160.539 143.95C160.609 143.813 160.689 143.527 160.722 143.036C160.754 142.562 160.738 141.973 160.674 141.282C160.548 139.903 160.245 138.213 159.842 136.414C159.038 132.823 157.862 128.905 157.025 126.397Z" fill="white" stroke="#4E4848" stroke-width="2"/>
<path fill-rule="evenodd" clip-rule="evenodd" d="M224.512 113.44C216.796 115.143 211 122.385 211 131.061C211 140.911 218.473 148.914 227.744 149.059C237.312 145.524 240.104 138.44 240.14 133.248C240.725 123.664 233.911 115.294 224.512 113.44Z" fill="#4E4848"/>
<path fill-rule="evenodd" clip-rule="evenodd" d="M145.693 113.955C151.348 115.762 156.041 120.101 157.974 126.08C159.662 131.139 162.717 141.888 161.429 144.406C160.57 146.086 155.767 147.871 150.649 149.057C141.422 148.859 134 140.878 134 131.061C134 123.082 138.903 116.315 145.693 113.955Z" fill="#4E4848"/>
<line x1="120.411" y1="115.906" x2="124.927" y2="119.857" stroke="#4E4848" stroke-width="2" stroke-linecap="round"/>
<line x1="116.225" y1="123.293" x2="122.02" y2="124.846" stroke="#4E4848" stroke-width="2" stroke-linecap="round"/>
<line x1="1" y1="-1" x2="7" y2="-1" transform="matrix(-0.752577 0.658505 0.658505 0.752577 241.021 116)" stroke="#4E4848" stroke-width="2" stroke-linecap="round"/>
<line x1="1" y1="-1" x2="7" y2="-1" transform="matrix(-0.965926 0.258819 0.258819 0.965926 245.021 124)" stroke="#4E4848" stroke-width="2" stroke-linecap="round"/>
<g opacity="0.7" filter="url(#filter0_f_52_2046)">
<ellipse cx="119.5" cy="160.5" rx="12.5" ry="10.5" fill="#FFBAA5"/>
<ellipse cx="239.5" cy="160.5" rx="12.5" ry="10.5" fill="#FFBAA5"/>
</g>
<path d="M193 162C193 168.075 187.404 173 180.5 173C173.596 173 168 168.075 168 162" stroke="#8C501D" stroke-width="3" stroke-linecap="round"/>
<ellipse cx="181" cy="143.5" rx="9" ry="5.5" fill="#FF7E36"/>
<path fill-rule="evenodd" clip-rule="evenodd" d="M155.353 207.521C144.473 209.609 126.11 218.194 108.5 242C93.5708 262.182 83.8327 274.609 76.5453 283.112C75.8737 283.038 75.1913 283 74.5 283C64.2827 283 56 291.283 56 301.5C56 311.717 64.2827 320 74.5 320C84.7173 320 93 311.717 93 301.5C93 298.965 92.49 296.549 91.567 294.348C105.418 280.375 125.52 260.542 137.853 253.5C133.649 267.573 123.181 325.514 137.853 360.5H173.5L179.75 337.5L186.5 360.5H221.647C236.319 325.514 225.851 267.573 221.647 253.5C233.409 260.216 253.274 279.603 267.588 293.989C266.567 296.285 266 298.826 266 301.5C266 311.717 274.283 320 284.5 320C294.717 320 303 311.717 303 301.5C303 291.283 294.717 283 284.5 283C284.035 283 283.574 283.017 283.118 283.051C275.383 274.008 265.073 261.025 251 242C232.741 217.317 213.672 208.997 202.975 207.316C196.493 208.76 188.048 210 178.694 210C169.786 210 161.702 208.875 155.353 207.521Z" fill="#FFC892"/>
<path fill-rule="evenodd" clip-rule="evenodd" d="M229.071 306.164C221.576 306.79 194.092 309 179.5 309C166.48 309 141.434 307.24 130.421 306.416C129.794 325.082 131.367 345.034 137.853 360.5H173.5L179.75 337.5L186.5 360.5H221.647C228.163 344.964 229.72 324.901 229.071 306.164Z" fill="#212121"/>
<g style="mix-blend-mode:hard-light" opacity="0.1" filter="url(#filter1_f_52_2046)">
<path fill-rule="evenodd" clip-rule="evenodd" d="M210.094 209.12C209.12 214.652 206.646 223.035 205.476 227C205.054 228.429 204.749 230.949 204.395 233.872C203.51 241.173 202.321 250.985 198.25 252.584C192.549 254.822 186.083 256 179.5 256C172.917 256 166.451 254.822 160.75 252.584C155.049 250.346 153.5 237.5 153.5 228C153.5 222.367 151.733 217.428 150.295 213.408C149.756 211.901 149.263 210.523 148.927 209.285C151.272 208.462 153.43 207.89 155.353 207.521C161.702 208.875 169.786 210 178.694 210C188.048 210 196.493 208.76 202.975 207.316C205.054 207.642 207.45 208.22 210.094 209.12Z" fill="#700000"/>
</g>
<g filter="url(#filter2_d_52_2046)">
<path d="M191.023 311.5L130.724 312.5C129.103 300.022 129.623 279.492 138.425 266.5L145.5 244L153 255.627C155.547 254.896 158.357 254.5 161.454 254.5C164.578 254.5 167.402 254.896 169.953 255.627L178 244L184.379 266.5C192.786 279.278 192.884 299.303 191.023 311.5Z" fill="#CCFABC"/>
</g>
<g filter="url(#filter3_d_52_2046)">
<path d="M228.023 311.5L167.724 312.5C166.103 300.022 166.623 279.492 175.425 266.5L182.5 244L190 255.627C192.547 254.896 195.357 254.5 198.454 254.5C201.578 254.5 204.402 254.896 206.953 255.627L215 244L221.379 266.5C229.786 279.278 229.884 299.303 228.023 311.5Z" fill="#D2FFC2"/>
</g>
<mask id="mask0_52_2046" style="mask-type:alpha" maskUnits="userSpaceOnUse" x="103" y="207" width="153" height="80">
<path d="M103 242.5C109.8 228.5 141 207 152.5 207C158.667 209.5 164.5 222.5 179 222.5C193.5 222.5 200 209.5 206 207C217.5 207 248.7 228.5 255.5 242.5C253.333 252 240 263.5 236 265.5C233 263.5 226.6 259.1 225 257.5C223 255.5 230 275 229.5 282.5C218.5 284.5 192.1 286.5 178.5 286.5C164.9 286.5 140 285 129 282.5C128.5 275 135.5 255.5 133.5 257.5C131.9 259.1 125.5 263.5 122.5 265.5C118.5 263.5 105.167 252 103 242.5Z" fill="black"/>
</mask>
<g mask="url(#mask0_52_2046)">
<rect x="72" y="197" width="213" height="163" fill="#D2FFC2"/>
<g filter="url(#filter4_d_52_2046)">
<path d="M209.023 293.5L148.724 294.5C147.103 282.022 147.623 261.492 156.425 248.5L163.5 226L171 237.627C173.547 236.896 176.357 236.5 179.454 236.5C182.578 236.5 185.402 236.896 187.953 237.627L196 226L202.379 248.5C210.786 261.278 210.884 281.303 209.023 293.5Z" fill="#123C14"/>
</g>
<circle cx="170.429" cy="247.429" r="6.42857" fill="white"/>
<circle cx="169.143" cy="247" r="4.28571" fill="#154617"/>
<circle cx="187.571" cy="247.429" r="6.42857" fill="white"/>
<circle cx="186.286" cy="247" r="4.28571" fill="#154617"/>
<g filter="url(#filter5_d_52_2046)">
<path d="M220.303 218.034C219.572 213.77 213.205 208.278 211.692 204.433C208.38 205.83 198.372 204.346 194.716 206.661C190.147 209.554 189.842 217.626 194.259 216.307C198.676 214.987 201.722 213.058 202.94 215.241C204.159 217.424 193.396 217.017 190.35 218.946C187.304 220.875 189.029 229.303 192.329 228.034C195.629 226.765 197.051 223.567 199.132 225.039C201.213 226.511 192.786 228.237 192.024 231.181C191.466 233.669 191.262 239.05 194.917 240.675C198.572 242.3 202.431 238.543 203.903 236.462C205.579 233.924 201.213 226.511 203.701 227.07C206.188 227.628 204.767 230.827 206.036 234.127C207.305 237.427 214.717 233.061 214.108 229.507C213.499 225.954 205.986 218.236 208.423 217.678C210.86 217.12 211.469 220.674 213.448 224.837C215.428 229 221.216 223.365 220.303 218.034Z" fill="#48AD4C"/>
</g>
<g filter="url(#filter6_d_52_2046)">
<path d="M231.462 234.78C233.38 230.901 231.462 222.715 232.5 218.715C229 217.897 221.78 210.809 217.462 210.531C212.065 210.183 207.07 216.531 211.418 218.062C215.766 219.593 219.364 219.825 219.065 222.307C218.766 224.789 210.302 218.129 206.704 217.897C203.106 217.665 199.544 225.495 202.959 226.41C206.374 227.325 209.405 225.575 210.222 227.99C211.039 230.405 203.208 226.843 200.86 228.776C198.945 230.459 195.615 234.691 197.615 238.155C199.615 241.62 204.945 240.852 207.36 240.035C210.209 238.968 211.039 230.406 212.722 232.321C214.405 234.236 211.374 235.986 210.459 239.401C209.544 242.816 218.106 243.646 219.704 240.414C221.302 237.182 219.766 226.521 222.065 227.504C224.364 228.486 222.766 231.718 221.918 236.249C221.07 240.78 229.065 239.628 231.462 234.78Z" fill="#1A701D"/>
</g>
<g filter="url(#filter7_d_52_2046)">
<path d="M223.77 279.591C228.012 280.443 235.426 276.479 239.559 276.451C239.447 272.858 244.433 264.054 243.588 259.811C242.533 254.506 235.111 251.317 234.753 255.913C234.395 260.509 235.099 264.045 232.624 264.396C230.148 264.748 234.401 254.852 233.697 251.316C232.993 247.78 224.509 246.357 224.506 249.893C224.503 253.428 226.975 255.906 224.852 257.318C222.73 258.73 224.152 250.246 221.679 248.476C219.559 247.06 214.611 244.933 211.78 247.759C208.949 250.585 211.065 255.537 212.478 257.659C214.243 260.136 222.729 258.73 221.313 260.85C219.897 262.97 217.425 260.493 213.889 260.489C210.354 260.486 211.76 268.972 215.294 269.683C218.829 270.393 228.733 266.16 228.377 268.635C228.021 271.109 224.486 270.399 219.889 270.748C215.293 271.097 218.468 278.525 223.77 279.591Z" fill="#1A701D"/>
</g>
<g filter="url(#filter8_d_52_2046)">
<path d="M244.064 224.013C241.266 220.713 232.991 219.223 229.732 216.683C227.591 219.57 218.22 223.383 216.25 227.235C213.788 232.05 217.631 239.155 220.762 235.772C223.894 232.39 225.535 229.179 227.695 230.439C229.854 231.699 220.381 236.823 218.739 240.033C217.097 243.244 222.87 249.622 225.065 246.851C227.261 244.08 226.859 240.603 229.399 240.812C231.94 241.021 225.562 246.793 226.404 249.716C227.188 252.142 229.75 256.879 233.724 256.418C237.697 255.958 239.109 250.761 239.318 248.22C239.469 245.183 231.94 241.021 234.366 240.237C236.792 239.453 237.195 242.929 239.966 245.125C242.737 247.321 246.898 239.792 244.566 237.042C242.234 234.292 231.841 231.469 233.655 229.749C235.469 228.029 237.801 230.779 241.623 233.356C245.445 235.934 247.562 228.138 244.064 224.013Z" fill="#75D379"/>
</g>
<g filter="url(#filter9_d_52_2046)">
<path d="M126.754 261.266C125.432 265.386 128.54 273.198 128.106 277.307C131.689 277.599 139.879 283.539 144.19 283.175C149.579 282.721 153.58 275.703 149.053 274.833C144.526 273.962 140.933 274.265 140.861 271.766C140.79 269.267 150.146 274.601 153.739 274.298C157.332 273.995 159.696 265.724 156.183 265.324C152.67 264.925 149.931 267.104 148.766 264.837C147.6 262.569 155.872 264.933 157.908 262.674C159.552 260.726 162.219 256.047 159.729 252.917C157.238 249.787 152.08 251.336 149.813 252.501C147.154 253.978 147.6 262.569 145.652 260.924C143.705 259.28 146.443 257.1 146.842 253.587C147.242 250.074 138.651 250.521 137.549 253.954C136.447 257.387 139.544 267.702 137.125 267.071C134.706 266.441 135.808 263.007 135.976 258.401C136.144 253.794 128.407 256.117 126.754 261.266Z" fill="#1A701D"/>
</g>
<g filter="url(#filter10_d_52_2046)">
<path d="M163.726 294.599C167.922 295.656 175.519 292.055 179.648 292.225C179.71 288.631 185.115 280.079 184.476 275.799C183.678 270.45 176.419 266.907 175.84 271.48C175.26 276.053 175.792 279.619 173.303 279.85C170.814 280.082 175.539 270.403 175.007 266.837C174.474 263.271 166.069 261.441 165.895 264.972C165.721 268.503 168.071 271.097 165.882 272.405C163.694 273.713 165.524 265.307 163.139 263.42C161.09 261.903 156.251 259.541 153.287 262.226C150.323 264.912 152.198 269.96 153.506 272.149C155.149 274.707 163.694 273.713 162.177 275.762C160.66 277.811 158.31 275.217 154.779 275.043C151.248 274.869 152.242 283.414 155.739 284.294C159.235 285.174 169.332 281.424 168.857 283.879C168.382 286.333 164.885 285.453 160.277 285.58C155.669 285.707 158.482 293.279 163.726 294.599Z" fill="#48AD4C"/>
</g>
<g filter="url(#filter11_d_52_2046)">
<path d="M124.462 200.909C120.3 202.09 115.517 209.005 111.855 210.919C113.597 214.064 113.187 224.173 115.878 227.561C119.242 231.796 127.3 231.24 125.518 226.989C123.735 222.737 121.493 219.914 123.534 218.47C125.575 217.026 126.316 227.771 128.559 230.594C130.801 233.418 138.997 230.805 137.384 227.659C135.771 224.513 132.439 223.439 133.682 221.213C134.924 218.987 137.537 227.183 140.546 227.626C143.079 227.917 148.451 227.546 149.678 223.739C150.904 219.931 146.758 216.495 144.531 215.252C141.829 213.857 134.924 218.987 135.214 216.454C135.505 213.921 138.836 214.994 141.982 213.381C145.128 211.768 139.998 204.862 136.53 205.846C133.061 206.83 126.188 215.123 125.373 212.759C124.558 210.395 128.027 209.411 131.956 207C135.884 204.588 129.665 199.433 124.462 200.909Z" fill="#1A701D"/>
</g>
<g filter="url(#filter12_d_52_2046)">
<path d="M166.981 213.01C164.231 209.669 155.979 208.059 152.757 205.471C150.574 208.327 141.148 212.003 139.122 215.826C136.59 220.605 140.329 227.765 143.51 224.428C146.69 221.091 148.379 217.905 150.519 219.197C152.66 220.488 143.113 225.473 141.425 228.659C139.737 231.845 145.416 238.307 147.651 235.568C149.887 232.829 149.535 229.347 152.073 229.593C154.61 229.839 148.149 235.518 148.948 238.452C149.697 240.889 152.19 245.663 156.17 245.261C160.149 244.858 161.636 239.682 161.882 237.145C162.078 234.11 154.611 229.839 157.048 229.09C159.484 228.341 159.837 231.823 162.575 234.059C165.314 236.295 169.585 228.828 167.293 226.044C165.002 223.261 154.65 220.287 156.489 218.593C158.328 216.9 160.62 219.683 164.404 222.316C168.188 224.949 170.418 217.185 166.981 213.01Z" fill="#75D379"/>
</g>
<g filter="url(#filter13_d_52_2046)">
<path d="M114.627 266.023C117.408 269.337 125.675 270.871 128.92 273.429C131.076 270.553 140.468 266.789 142.458 262.948C144.946 258.145 141.14 251.02 137.991 254.386C134.842 257.753 133.183 260.954 131.03 259.683C128.878 258.412 138.378 253.338 140.036 250.136C141.695 246.935 135.956 240.526 133.746 243.286C131.536 246.045 131.92 249.524 129.38 249.301C126.841 249.079 133.249 243.34 132.423 240.413C131.651 237.983 129.114 233.233 125.138 233.673C121.163 234.112 119.724 239.301 119.501 241.841C119.334 244.878 126.84 249.079 124.411 249.85C121.981 250.622 121.596 247.143 118.837 244.933C116.077 242.722 111.876 250.229 114.194 252.991C116.511 255.754 126.89 258.631 125.067 260.342C123.243 262.052 120.926 259.29 117.118 256.693C113.309 254.095 111.151 261.879 114.627 266.023Z" fill="#75D379"/>
</g>
<g filter="url(#filter14_d_52_2046)">
<path d="M89.9449 235.238C88.4466 239.297 91.2164 247.235 90.6059 251.322C94.1727 251.767 102.1 258.054 106.423 257.876C111.826 257.654 116.125 250.814 111.64 249.75C107.154 248.686 103.552 248.834 103.587 246.334C103.623 243.835 112.742 249.566 116.345 249.417C119.947 249.269 122.664 241.107 119.172 240.557C115.679 240.007 112.85 242.066 111.783 239.751C110.716 237.436 118.878 240.153 121.009 237.983C122.736 236.107 125.601 231.548 123.247 228.314C120.893 225.08 115.674 226.405 113.358 227.472C110.639 228.834 110.716 237.435 108.84 235.708C106.965 233.982 109.794 231.922 110.344 228.429C110.894 224.937 102.292 225.014 101.044 228.396C99.7954 231.779 102.446 242.218 100.057 241.483C97.6668 240.749 98.9153 237.367 99.2811 232.771C99.6469 228.176 91.8176 230.164 89.9449 235.238Z" fill="#48AD4C"/>
</g>
<g filter="url(#filter15_d_52_2046)">
<path d="M194.765 285.027C196.019 289.168 203.018 293.827 204.997 297.455C208.11 295.658 218.225 295.889 221.564 293.138C225.739 289.7 225.04 281.653 220.822 283.51C216.603 285.368 213.819 287.66 212.339 285.645C210.86 283.63 221.59 282.698 224.373 280.406C227.156 278.114 224.398 269.966 221.281 271.634C218.164 273.303 217.15 276.653 214.902 275.45C212.655 274.247 220.803 271.489 221.193 268.473C221.439 265.935 220.973 260.57 217.144 259.412C213.316 258.253 209.953 262.459 208.751 264.707C207.403 267.434 212.654 274.247 210.117 274.002C207.579 273.756 208.593 270.406 206.924 267.289C205.256 264.172 198.442 269.424 199.488 272.874C200.533 276.325 208.945 283.05 206.597 283.907C204.248 284.763 203.203 281.312 200.722 277.427C198.241 273.542 193.197 279.851 194.765 285.027Z" fill="#48AD4C"/>
</g>
<g filter="url(#filter16_d_52_2046)">
<path d="M173.122 200.863C168.838 200.258 161.666 204.645 157.542 204.913C157.862 208.493 153.395 217.572 154.484 221.759C155.846 226.993 163.44 229.747 163.53 225.138C163.621 220.529 162.714 217.039 165.164 216.545C167.615 216.051 163.944 226.176 164.851 229.666C165.759 233.155 174.311 234.083 174.11 230.554C173.908 227.024 171.296 224.694 173.333 223.161C175.37 221.628 174.442 230.18 177.014 231.804C179.213 233.095 184.275 234.931 186.938 231.946C189.6 228.961 187.2 224.14 185.667 222.103C183.761 219.733 175.371 221.628 176.661 219.43C177.952 217.231 180.564 219.561 184.094 219.359C187.624 219.158 185.728 210.767 182.158 210.263C178.588 209.758 168.946 214.558 169.158 212.067C169.37 209.576 172.94 210.081 177.509 209.466C182.077 208.851 178.477 201.62 173.122 200.863Z" fill="#1A701D"/>
</g>
<g filter="url(#filter17_d_52_2046)">
<path d="M258.069 257.182C261.918 255.206 265.246 247.485 268.46 244.888C266.134 242.148 264.547 232.155 261.242 229.363C257.111 225.872 249.32 228.003 251.904 231.82C254.488 235.638 257.242 237.965 255.525 239.782C253.808 241.599 250.967 231.21 248.213 228.883C245.459 226.556 237.937 230.73 240.138 233.498C242.338 236.265 245.816 236.662 245.036 239.089C244.255 241.516 240.081 233.994 237.044 234.151C234.503 234.365 229.309 235.785 228.855 239.759C228.402 243.733 233.143 246.287 235.57 247.067C238.494 247.904 244.255 241.516 244.469 244.056C244.682 246.597 241.205 246.2 238.438 248.401C235.671 250.602 242.059 256.363 245.266 254.716C248.473 253.068 253.581 243.586 254.845 245.743C256.108 247.9 252.901 249.548 249.524 252.685C246.146 255.822 253.258 259.653 258.069 257.182Z" fill="#48AD4C"/>
</g>
<g filter="url(#filter18_d_52_2046)">
<path d="M179.339 285.006C182.963 287.37 191.318 286.436 195.167 287.941C196.394 284.563 204.288 278.234 205.076 273.98C206.062 268.662 200.351 262.949 198.315 267.085C196.279 271.221 195.622 274.766 193.193 274.175C190.764 273.584 198.381 265.969 199.038 262.424C199.695 258.879 192.342 254.413 191.029 257.696C189.715 260.978 191.093 264.196 188.599 264.72C186.104 265.245 190.569 257.893 188.928 255.332C187.484 253.231 183.677 249.423 180 250.998C176.323 252.573 176.454 257.957 176.979 260.451C177.7 263.406 186.104 265.245 184.003 266.689C181.902 268.134 180.523 264.916 177.241 263.603C173.958 262.289 172.119 270.693 175.139 272.663C178.159 274.633 188.926 274.372 187.678 276.538C186.43 278.704 183.41 276.734 179.012 275.355C174.613 273.976 174.809 282.051 179.339 285.006Z" fill="#75D379"/>
</g>
</g>
<g filter="url(#filter19_d_52_2046)">
<path d="M124.754 290.266C123.432 294.386 126.54 302.198 126.106 306.307C129.689 306.599 137.879 312.539 142.19 312.175C147.579 311.721 151.58 304.703 147.053 303.833C142.526 302.962 138.933 303.265 138.861 300.766C138.79 298.267 148.146 303.601 151.739 303.298C155.332 302.995 157.696 294.724 154.183 294.324C150.67 293.925 147.931 296.104 146.766 293.837C145.6 291.569 153.872 293.933 155.908 291.674C157.552 289.726 160.219 285.047 157.729 281.917C155.238 278.787 150.08 280.336 147.813 281.501C145.154 282.978 145.6 291.569 143.652 289.924C141.705 288.28 144.443 286.1 144.842 282.587C145.242 279.074 136.651 279.521 135.549 282.954C134.447 286.387 137.544 296.702 135.125 296.071C132.706 295.441 133.808 292.007 133.976 287.401C134.144 282.794 126.407 285.117 124.754 290.266Z" fill="#1A701D"/>
</g>
<g filter="url(#filter20_d_52_2046)">
<path d="M185.483 311.982C189.699 312.956 197.225 309.207 201.356 309.297C201.348 305.703 206.585 297.046 205.863 292.78C204.961 287.448 197.634 284.046 197.144 288.63C196.654 293.214 197.255 296.769 194.771 297.049C192.287 297.328 196.822 287.559 196.22 284.004C195.619 280.449 187.179 278.783 187.074 282.317C186.969 285.851 189.369 288.399 187.206 289.749C185.044 291.099 186.71 282.66 184.289 280.819C182.211 279.343 177.326 277.075 174.415 279.818C171.504 282.561 173.477 287.572 174.827 289.734C176.52 292.261 185.044 291.1 183.567 293.178C182.091 295.256 179.691 292.709 176.157 292.604C172.623 292.498 173.784 301.022 177.297 301.834C180.81 302.646 190.831 298.7 190.404 301.163C189.977 303.626 186.464 302.814 181.859 303.031C177.254 303.248 180.214 310.764 185.483 311.982Z" fill="#1A701D"/>
</g>
<g filter="url(#filter21_d_52_2046)">
<path d="M212.726 310.599C216.922 311.656 224.519 308.055 228.648 308.225C228.71 304.631 234.115 296.079 233.476 291.799C232.678 286.45 225.419 282.907 224.84 287.48C224.26 292.053 224.792 295.619 222.303 295.85C219.814 296.082 224.539 286.403 224.007 282.837C223.474 279.271 215.069 277.441 214.895 280.972C214.721 284.503 217.071 287.097 214.882 288.405C212.694 289.713 214.524 281.307 212.139 279.42C210.09 277.903 205.251 275.541 202.287 278.226C199.323 280.912 201.198 285.96 202.506 288.149C204.149 290.707 212.694 289.713 211.177 291.762C209.66 293.811 207.31 291.217 203.779 291.043C200.248 290.869 201.242 299.414 204.739 300.294C208.235 301.174 218.332 297.424 217.857 299.879C217.382 302.333 213.885 301.453 209.277 301.58C204.669 301.707 207.482 309.279 212.726 310.599Z" fill="#48AD4C"/>
</g>
<g filter="url(#filter22_d_52_2046)">
<path d="M155.586 293.838C155.179 298.146 159.893 305.108 160.351 309.215C163.913 308.73 173.187 312.773 177.32 311.492C182.486 309.89 184.886 302.177 180.277 302.299C175.669 302.421 172.225 303.489 171.619 301.064C171.012 298.638 181.296 301.838 184.74 300.77C188.184 299.703 188.716 291.117 185.199 291.481C181.682 291.846 179.476 294.562 177.851 292.598C176.225 290.634 184.811 291.166 186.314 288.522C187.502 286.266 189.102 281.124 185.998 278.602C182.893 276.081 178.188 278.701 176.224 280.326C173.944 282.339 176.225 290.634 173.969 289.446C171.714 288.258 173.92 285.541 173.556 282.024C173.192 278.507 164.897 280.789 164.558 284.378C164.219 287.968 169.459 297.377 166.961 297.281C164.463 297.184 164.802 293.594 163.977 289.059C163.152 284.524 156.094 288.454 155.586 293.838Z" fill="#48AD4C"/>
</g>
<g filter="url(#filter23_d_52_2046)">
<path d="M138.339 309.006C141.963 311.37 150.318 310.436 154.167 311.941C155.394 308.563 163.288 302.234 164.076 297.98C165.062 292.662 159.351 286.949 157.315 291.085C155.279 295.221 154.622 298.766 152.193 298.175C149.764 297.584 157.381 289.969 158.038 286.424C158.695 282.879 151.342 278.413 150.029 281.696C148.715 284.978 150.093 288.196 147.599 288.72C145.104 289.245 149.569 281.893 147.928 279.332C146.484 277.231 142.677 273.423 139 274.998C135.323 276.573 135.454 281.957 135.979 284.451C136.7 287.406 145.104 289.245 143.003 290.689C140.902 292.134 139.523 288.916 136.241 287.603C132.958 286.289 131.119 294.693 134.139 296.663C137.159 298.633 147.926 298.372 146.678 300.538C145.43 302.704 142.41 300.734 138.012 299.355C133.613 297.976 133.809 306.051 138.339 309.006Z" fill="#75D379"/>
</g>
<g filter="url(#filter24_d_52_2046)">
<path d="M179.057 296.342C179.615 300.632 185.755 306.376 187.113 310.279C190.478 309.016 200.418 310.903 204.164 308.737C208.846 306.03 209.476 297.977 205.01 299.118C200.543 300.258 197.422 302.063 196.293 299.832C195.163 297.602 205.901 298.442 209.022 296.638C212.144 294.833 210.759 286.343 207.411 287.478C204.062 288.613 202.513 291.751 200.493 290.196C198.472 288.641 206.962 287.256 207.842 284.345C208.501 281.882 208.921 276.513 205.334 274.742C201.747 272.972 197.74 276.57 196.185 278.59C194.409 281.059 198.472 288.641 196.009 287.982C193.546 287.324 195.096 284.186 193.961 280.837C192.826 277.489 185.243 281.552 185.709 285.128C186.174 288.703 193.37 296.717 190.913 297.176C188.455 297.636 187.99 294.06 186.18 289.821C184.369 285.582 178.359 290.979 179.057 296.342Z" fill="#75D379"/>
</g>
</g>
<defs>
<filter id="filter0_f_52_2046" x="90" y="140" width="179" height="41" filterUnits="userSpaceOnUse" color-interpolation-filters="sRGB">
<feFlood flood-opacity="0" result="BackgroundImageFix"/>
<feBlend mode="normal" in="SourceGraphic" in2="BackgroundImageFix" result="shape"/>
<feGaussianBlur stdDeviation="2.5" result="effect1_foregroundBlur_52_2046"/>
</filter>
<filter id="filter1_f_52_2046" x="146.927" y="205.316" width="65.1671" height="52.6843" filterUnits="userSpaceOnUse" color-interpolation-filters="sRGB">
<feFlood flood-opacity="0" result="BackgroundImageFix"/>
<feBlend mode="normal" in="SourceGraphic" in2="BackgroundImageFix" result="shape"/>
<feGaussianBlur stdDeviation="1" result="effect1_foregroundBlur_52_2046"/>
</filter>
<filter id="filter2_d_52_2046" x="127" y="241" width="68" height="74.5" filterUnits="userSpaceOnUse" color-interpolation-filters="sRGB">
<feFlood flood-opacity="0" result="BackgroundImageFix"/>
<feColorMatrix in="SourceAlpha" type="matrix" values="0 0 0 0 0 0 0 0 0 0 0 0 0 0 0 0 0 0 127 0" result="hardAlpha"/>
<feOffset/>
<feGaussianBlur stdDeviation="1.5"/>
<feColorMatrix type="matrix" values="0 0 0 0 0.0705882 0 0 0 0 0.231373 0 0 0 0 0.0784314 0 0 0 0.4 0"/>
<feBlend mode="normal" in2="BackgroundImageFix" result="effect1_dropShadow_52_2046"/>
<feBlend mode="normal" in="SourceGraphic" in2="effect1_dropShadow_52_2046" result="shape"/>
</filter>
<filter id="filter3_d_52_2046" x="164" y="241" width="68" height="74.5" filterUnits="userSpaceOnUse" color-interpolation-filters="sRGB">
<feFlood flood-opacity="0" result="BackgroundImageFix"/>
<feColorMatrix in="SourceAlpha" type="matrix" values="0 0 0 0 0 0 0 0 0 0 0 0 0 0 0 0 0 0 127 0" result="hardAlpha"/>
<feOffset/>
<feGaussianBlur stdDeviation="1.5"/>
<feColorMatrix type="matrix" values="0 0 0 0 0.0705882 0 0 0 0 0.231373 0 0 0 0 0.0784314 0 0 0 0.4 0"/>
<feBlend mode="normal" in2="BackgroundImageFix" result="effect1_dropShadow_52_2046"/>
<feBlend mode="normal" in="SourceGraphic" in2="effect1_dropShadow_52_2046" result="shape"/>
</filter>
<filter id="filter4_d_52_2046" x="145" y="223" width="68" height="74.5" filterUnits="userSpaceOnUse" color-interpolation-filters="sRGB">
<feFlood flood-opacity="0" result="BackgroundImageFix"/>
<feColorMatrix in="SourceAlpha" type="matrix" values="0 0 0 0 0 0 0 0 0 0 0 0 0 0 0 0 0 0 127 0" result="hardAlpha"/>
<feOffset/>
<feGaussianBlur stdDeviation="1.5"/>
<feColorMatrix type="matrix" values="0 0 0 0 0.0705882 0 0 0 0 0.231373 0 0 0 0 0.0784314 0 0 0 0.4 0"/>
<feBlend mode="normal" in2="BackgroundImageFix" result="effect1_dropShadow_52_2046"/>
<feBlend mode="normal" in="SourceGraphic" in2="effect1_dropShadow_52_2046" result="shape"/>
</filter>
<filter id="filter5_d_52_2046" x="186.766" y="202.433" width="35.6338" height="40.6388" filterUnits="userSpaceOnUse" color-interpolation-filters="sRGB">
<feFlood flood-opacity="0" result="BackgroundImageFix"/>
<feColorMatrix in="SourceAlpha" type="matrix" values="0 0 0 0 0 0 0 0 0 0 0 0 0 0 0 0 0 0 127 0" result="hardAlpha"/>
<feOffset/>
<feGaussianBlur stdDeviation="1"/>
<feColorMatrix type="matrix" values="0 0 0 0 0.101961 0 0 0 0 0.439216 0 0 0 0 0.113725 0 0 0 0.3 0"/>
<feBlend mode="normal" in2="BackgroundImageFix" result="effect1_dropShadow_52_2046"/>
<feBlend mode="normal" in="SourceGraphic" in2="effect1_dropShadow_52_2046" result="shape"/>
</filter>
<filter id="filter6_d_52_2046" x="194.997" y="208.517" width="39.5027" height="35.9301" filterUnits="userSpaceOnUse" color-interpolation-filters="sRGB">
<feFlood flood-opacity="0" result="BackgroundImageFix"/>
<feColorMatrix in="SourceAlpha" type="matrix" values="0 0 0 0 0 0 0 0 0 0 0 0 0 0 0 0 0 0 127 0" result="hardAlpha"/>
<feOffset/>
<feGaussianBlur stdDeviation="1"/>
<feColorMatrix type="matrix" values="0 0 0 0 0.101961 0 0 0 0 0.439216 0 0 0 0 0.113725 0 0 0 0.3 0"/>
<feBlend mode="normal" in2="BackgroundImageFix" result="effect1_dropShadow_52_2046"/>
<feBlend mode="normal" in="SourceGraphic" in2="effect1_dropShadow_52_2046" result="shape"/>
</filter>
<filter id="filter7_d_52_2046" x="208.382" y="244.368" width="37.3022" height="37.3423" filterUnits="userSpaceOnUse" color-interpolation-filters="sRGB">
<feFlood flood-opacity="0" result="BackgroundImageFix"/>
<feColorMatrix in="SourceAlpha" type="matrix" values="0 0 0 0 0 0 0 0 0 0 0 0 0 0 0 0 0 0 127 0" result="hardAlpha"/>
<feOffset/>
<feGaussianBlur stdDeviation="1"/>
<feColorMatrix type="matrix" values="0 0 0 0 0.101961 0 0 0 0 0.439216 0 0 0 0 0.113725 0 0 0 0.3 0"/>
<feBlend mode="normal" in2="BackgroundImageFix" result="effect1_dropShadow_52_2046"/>
<feBlend mode="normal" in="SourceGraphic" in2="effect1_dropShadow_52_2046" result="shape"/>
</filter>
<filter id="filter8_d_52_2046" x="213.465" y="214.682" width="34.3759" height="43.7671" filterUnits="userSpaceOnUse" color-interpolation-filters="sRGB">
<feFlood flood-opacity="0" result="BackgroundImageFix"/>
<feColorMatrix in="SourceAlpha" type="matrix" values="0 0 0 0 0 0 0 0 0 0 0 0 0 0 0 0 0 0 127 0" result="hardAlpha"/>
<feOffset/>
<feGaussianBlur stdDeviation="1"/>
<feColorMatrix type="matrix" values="0 0 0 0 0.101961 0 0 0 0 0.439216 0 0 0 0 0.113725 0 0 0 0.3 0"/>
<feBlend mode="normal" in2="BackgroundImageFix" result="effect1_dropShadow_52_2046"/>
<feBlend mode="normal" in="SourceGraphic" in2="effect1_dropShadow_52_2046" result="shape"/>
</filter>
<filter id="filter9_d_52_2046" x="124.424" y="249.072" width="38.3207" height="36.1196" filterUnits="userSpaceOnUse" color-interpolation-filters="sRGB">
<feFlood flood-opacity="0" result="BackgroundImageFix"/>
<feColorMatrix in="SourceAlpha" type="matrix" values="0 0 0 0 0 0 0 0 0 0 0 0 0 0 0 0 0 0 127 0" result="hardAlpha"/>
<feOffset/>
<feGaussianBlur stdDeviation="1"/>
<feColorMatrix type="matrix" values="0 0 0 0 0.101961 0 0 0 0 0.439216 0 0 0 0 0.113725 0 0 0 0.3 0"/>
<feBlend mode="normal" in2="BackgroundImageFix" result="effect1_dropShadow_52_2046"/>
<feBlend mode="normal" in="SourceGraphic" in2="effect1_dropShadow_52_2046" result="shape"/>
</filter>
<filter id="filter10_d_52_2046" x="149.706" y="259.005" width="36.8225" height="37.7891" filterUnits="userSpaceOnUse" color-interpolation-filters="sRGB">
<feFlood flood-opacity="0" result="BackgroundImageFix"/>
<feColorMatrix in="SourceAlpha" type="matrix" values="0 0 0 0 0 0 0 0 0 0 0 0 0 0 0 0 0 0 127 0" result="hardAlpha"/>
<feOffset/>
<feGaussianBlur stdDeviation="1"/>
<feColorMatrix type="matrix" values="0 0 0 0 0.101961 0 0 0 0 0.439216 0 0 0 0 0.113725 0 0 0 0.3 0"/>
<feBlend mode="normal" in2="BackgroundImageFix" result="effect1_dropShadow_52_2046"/>
<feBlend mode="normal" in="SourceGraphic" in2="effect1_dropShadow_52_2046" result="shape"/>
</filter>
<filter id="filter11_d_52_2046" x="109.855" y="198.648" width="42.0446" height="35.1521" filterUnits="userSpaceOnUse" color-interpolation-filters="sRGB">
<feFlood flood-opacity="0" result="BackgroundImageFix"/>
<feColorMatrix in="SourceAlpha" type="matrix" values="0 0 0 0 0 0 0 0 0 0 0 0 0 0 0 0 0 0 127 0" result="hardAlpha"/>
<feOffset/>
<feGaussianBlur stdDeviation="1"/>
<feColorMatrix type="matrix" values="0 0 0 0 0.101961 0 0 0 0 0.439216 0 0 0 0 0.113725 0 0 0 0.3 0"/>
<feBlend mode="normal" in2="BackgroundImageFix" result="effect1_dropShadow_52_2046"/>
<feBlend mode="normal" in="SourceGraphic" in2="effect1_dropShadow_52_2046" result="shape"/>
</filter>
<filter id="filter12_d_52_2046" x="136.287" y="203.471" width="34.3961" height="43.8135" filterUnits="userSpaceOnUse" color-interpolation-filters="sRGB">
<feFlood flood-opacity="0" result="BackgroundImageFix"/>
<feColorMatrix in="SourceAlpha" type="matrix" values="0 0 0 0 0 0 0 0 0 0 0 0 0 0 0 0 0 0 127 0" result="hardAlpha"/>
<feOffset/>
<feGaussianBlur stdDeviation="1"/>
<feColorMatrix type="matrix" values="0 0 0 0 0.101961 0 0 0 0 0.439216 0 0 0 0 0.113725 0 0 0 0.3 0"/>
<feBlend mode="normal" in2="BackgroundImageFix" result="effect1_dropShadow_52_2046"/>
<feBlend mode="normal" in="SourceGraphic" in2="effect1_dropShadow_52_2046" result="shape"/>
</filter>
<filter id="filter13_d_52_2046" x="110.877" y="231.644" width="34.3835" height="43.7848" filterUnits="userSpaceOnUse" color-interpolation-filters="sRGB">
<feFlood flood-opacity="0" result="BackgroundImageFix"/>
<feColorMatrix in="SourceAlpha" type="matrix" values="0 0 0 0 0 0 0 0 0 0 0 0 0 0 0 0 0 0 127 0" result="hardAlpha"/>
<feOffset/>
<feGaussianBlur stdDeviation="1"/>
<feColorMatrix type="matrix" values="0 0 0 0 0.101961 0 0 0 0 0.439216 0 0 0 0 0.113725 0 0 0 0.3 0"/>
<feBlend mode="normal" in2="BackgroundImageFix" result="effect1_dropShadow_52_2046"/>
<feBlend mode="normal" in="SourceGraphic" in2="effect1_dropShadow_52_2046" result="shape"/>
</filter>
<filter id="filter14_d_52_2046" x="87.4943" y="223.835" width="38.6435" height="36.0453" filterUnits="userSpaceOnUse" color-interpolation-filters="sRGB">
<feFlood flood-opacity="0" result="BackgroundImageFix"/>
<feColorMatrix in="SourceAlpha" type="matrix" values="0 0 0 0 0 0 0 0 0 0 0 0 0 0 0 0 0 0 127 0" result="hardAlpha"/>
<feOffset/>
<feGaussianBlur stdDeviation="1"/>
<feColorMatrix type="matrix" values="0 0 0 0 0.101961 0 0 0 0 0.439216 0 0 0 0 0.113725 0 0 0 0.3 0"/>
<feBlend mode="normal" in2="BackgroundImageFix" result="effect1_dropShadow_52_2046"/>
<feBlend mode="normal" in="SourceGraphic" in2="effect1_dropShadow_52_2046" result="shape"/>
</filter>
<filter id="filter15_d_52_2046" x="192.468" y="257.214" width="35.0544" height="42.2414" filterUnits="userSpaceOnUse" color-interpolation-filters="sRGB">
<feFlood flood-opacity="0" result="BackgroundImageFix"/>
<feColorMatrix in="SourceAlpha" type="matrix" values="0 0 0 0 0 0 0 0 0 0 0 0 0 0 0 0 0 0 127 0" result="hardAlpha"/>
<feOffset/>
<feGaussianBlur stdDeviation="1"/>
<feColorMatrix type="matrix" values="0 0 0 0 0.101961 0 0 0 0 0.439216 0 0 0 0 0.113725 0 0 0 0.3 0"/>
<feBlend mode="normal" in2="BackgroundImageFix" result="effect1_dropShadow_52_2046"/>
<feBlend mode="normal" in="SourceGraphic" in2="effect1_dropShadow_52_2046" result="shape"/>
</filter>
<filter id="filter16_d_52_2046" x="152.313" y="198.806" width="37.8204" height="36.7515" filterUnits="userSpaceOnUse" color-interpolation-filters="sRGB">
<feFlood flood-opacity="0" result="BackgroundImageFix"/>
<feColorMatrix in="SourceAlpha" type="matrix" values="0 0 0 0 0 0 0 0 0 0 0 0 0 0 0 0 0 0 127 0" result="hardAlpha"/>
<feOffset/>
<feGaussianBlur stdDeviation="1"/>
<feColorMatrix type="matrix" values="0 0 0 0 0.101961 0 0 0 0 0.439216 0 0 0 0 0.113725 0 0 0 0.3 0"/>
<feBlend mode="normal" in2="BackgroundImageFix" result="effect1_dropShadow_52_2046"/>
<feBlend mode="normal" in="SourceGraphic" in2="effect1_dropShadow_52_2046" result="shape"/>
</filter>
<filter id="filter17_d_52_2046" x="226.825" y="225.594" width="43.6354" height="34.3784" filterUnits="userSpaceOnUse" color-interpolation-filters="sRGB">
<feFlood flood-opacity="0" result="BackgroundImageFix"/>
<feColorMatrix in="SourceAlpha" type="matrix" values="0 0 0 0 0 0 0 0 0 0 0 0 0 0 0 0 0 0 127 0" result="hardAlpha"/>
<feOffset/>
<feGaussianBlur stdDeviation="1"/>
<feColorMatrix type="matrix" values="0 0 0 0 0.101961 0 0 0 0 0.439216 0 0 0 0 0.113725 0 0 0 0.3 0"/>
<feBlend mode="normal" in2="BackgroundImageFix" result="effect1_dropShadow_52_2046"/>
<feBlend mode="normal" in="SourceGraphic" in2="effect1_dropShadow_52_2046" result="shape"/>
</filter>
<filter id="filter18_d_52_2046" x="171.607" y="248.626" width="35.5828" height="41.3153" filterUnits="userSpaceOnUse" color-interpolation-filters="sRGB">
<feFlood flood-opacity="0" result="BackgroundImageFix"/>
<feColorMatrix in="SourceAlpha" type="matrix" values="0 0 0 0 0 0 0 0 0 0 0 0 0 0 0 0 0 0 127 0" result="hardAlpha"/>
<feOffset/>
<feGaussianBlur stdDeviation="1"/>
<feColorMatrix type="matrix" values="0 0 0 0 0.101961 0 0 0 0 0.439216 0 0 0 0 0.113725 0 0 0 0.3 0"/>
<feBlend mode="normal" in2="BackgroundImageFix" result="effect1_dropShadow_52_2046"/>
<feBlend mode="normal" in="SourceGraphic" in2="effect1_dropShadow_52_2046" result="shape"/>
</filter>
<filter id="filter19_d_52_2046" x="122.424" y="278.072" width="38.3207" height="36.1196" filterUnits="userSpaceOnUse" color-interpolation-filters="sRGB">
<feFlood flood-opacity="0" result="BackgroundImageFix"/>
<feColorMatrix in="SourceAlpha" type="matrix" values="0 0 0 0 0 0 0 0 0 0 0 0 0 0 0 0 0 0 127 0" result="hardAlpha"/>
<feOffset/>
<feGaussianBlur stdDeviation="1"/>
<feColorMatrix type="matrix" values="0 0 0 0 0.101961 0 0 0 0 0.439216 0 0 0 0 0.113725 0 0 0 0.3 0"/>
<feBlend mode="normal" in2="BackgroundImageFix" result="effect1_dropShadow_52_2046"/>
<feBlend mode="normal" in="SourceGraphic" in2="effect1_dropShadow_52_2046" result="shape"/>
</filter>
<filter id="filter20_d_52_2046" x="170.91" y="276.53" width="37.0216" height="37.6135" filterUnits="userSpaceOnUse" color-interpolation-filters="sRGB">
<feFlood flood-opacity="0" result="BackgroundImageFix"/>
<feColorMatrix in="SourceAlpha" type="matrix" values="0 0 0 0 0 0 0 0 0 0 0 0 0 0 0 0 0 0 127 0" result="hardAlpha"/>
<feOffset/>
<feGaussianBlur stdDeviation="1"/>
<feColorMatrix type="matrix" values="0 0 0 0 0.101961 0 0 0 0 0.439216 0 0 0 0 0.113725 0 0 0 0.3 0"/>
<feBlend mode="normal" in2="BackgroundImageFix" result="effect1_dropShadow_52_2046"/>
<feBlend mode="normal" in="SourceGraphic" in2="effect1_dropShadow_52_2046" result="shape"/>
</filter>
<filter id="filter21_d_52_2046" x="198.706" y="275.005" width="36.8226" height="37.7891" filterUnits="userSpaceOnUse" color-interpolation-filters="sRGB">
<feFlood flood-opacity="0" result="BackgroundImageFix"/>
<feColorMatrix in="SourceAlpha" type="matrix" values="0 0 0 0 0 0 0 0 0 0 0 0 0 0 0 0 0 0 127 0" result="hardAlpha"/>
<feOffset/>
<feGaussianBlur stdDeviation="1"/>
<feColorMatrix type="matrix" values="0 0 0 0 0.101961 0 0 0 0 0.439216 0 0 0 0 0.113725 0 0 0 0.3 0"/>
<feBlend mode="normal" in2="BackgroundImageFix" result="effect1_dropShadow_52_2046"/>
<feBlend mode="normal" in="SourceGraphic" in2="effect1_dropShadow_52_2046" result="shape"/>
</filter>
<filter id="filter22_d_52_2046" x="153.561" y="275.555" width="36.2389" height="38.1885" filterUnits="userSpaceOnUse" color-interpolation-filters="sRGB">
<feFlood flood-opacity="0" result="BackgroundImageFix"/>
<feColorMatrix in="SourceAlpha" type="matrix" values="0 0 0 0 0 0 0 0 0 0 0 0 0 0 0 0 0 0 127 0" result="hardAlpha"/>
<feOffset/>
<feGaussianBlur stdDeviation="1"/>
<feColorMatrix type="matrix" values="0 0 0 0 0.101961 0 0 0 0 0.439216 0 0 0 0 0.113725 0 0 0 0.3 0"/>
<feBlend mode="normal" in2="BackgroundImageFix" result="effect1_dropShadow_52_2046"/>
<feBlend mode="normal" in="SourceGraphic" in2="effect1_dropShadow_52_2046" result="shape"/>
</filter>
<filter id="filter23_d_52_2046" x="130.607" y="272.626" width="35.5828" height="41.3153" filterUnits="userSpaceOnUse" color-interpolation-filters="sRGB">
<feFlood flood-opacity="0" result="BackgroundImageFix"/>
<feColorMatrix in="SourceAlpha" type="matrix" values="0 0 0 0 0 0 0 0 0 0 0 0 0 0 0 0 0 0 127 0" result="hardAlpha"/>
<feOffset/>
<feGaussianBlur stdDeviation="1"/>
<feColorMatrix type="matrix" values="0 0 0 0 0.101961 0 0 0 0 0.439216 0 0 0 0 0.113725 0 0 0 0.3 0"/>
<feBlend mode="normal" in2="BackgroundImageFix" result="effect1_dropShadow_52_2046"/>
<feBlend mode="normal" in="SourceGraphic" in2="effect1_dropShadow_52_2046" result="shape"/>
</filter>
<filter id="filter24_d_52_2046" x="177.001" y="272.267" width="35.7681" height="40.0123" filterUnits="userSpaceOnUse" color-interpolation-filters="sRGB">
<feFlood flood-opacity="0" result="BackgroundImageFix"/>
<feColorMatrix in="SourceAlpha" type="matrix" values="0 0 0 0 0 0 0 0 0 0 0 0 0 0 0 0 0 0 127 0" result="hardAlpha"/>
<feOffset/>
<feGaussianBlur stdDeviation="1"/>
<feColorMatrix type="matrix" values="0 0 0 0 0.101961 0 0 0 0 0.439216 0 0 0 0 0.113725 0 0 0 0.3 0"/>
<feBlend mode="normal" in2="BackgroundImageFix" result="effect1_dropShadow_52_2046"/>
<feBlend mode="normal" in="SourceGraphic" in2="effect1_dropShadow_52_2046" result="shape"/>
</filter>
<clipPath id="clip0_52_2046">
<rect width="360" height="360" fill="white"/>
</clipPath>
</defs>
</svg>
