<svg width="32" height="32" viewBox="0 0 32 32" fill="none" xmlns="http://www.w3.org/2000/svg">
<circle cx="16" cy="16" r="16" fill="black" fill-opacity="0.06"/>
<path fill-rule="evenodd" clip-rule="evenodd" d="M12 11.75C11.3096 11.75 10.75 12.3096 10.75 13V20C10.75 20.6904 11.3096 21.25 12 21.25H18C18.6904 21.25 19.25 20.6904 19.25 20V16.5C19.25 16.0858 19.5858 15.75 20 15.75C20.4142 15.75 20.75 16.0858 20.75 16.5V20C20.75 21.5188 19.5188 22.75 18 22.75H12C10.4812 22.75 9.25 21.5188 9.25 20V13C9.25 11.4812 10.4812 10.25 12 10.25H15C15.4142 10.25 15.75 10.5858 15.75 11C15.75 11.4142 15.4142 11.75 15 11.75H12Z" fill="black"/>
<path d="M20.3201 9.70711C20.7106 9.31658 21.3437 9.31658 21.7343 9.70711C22.1248 10.0976 22.1248 10.7308 21.7343 11.1213L15.9162 16.9394L14.1069 17.5904C13.9476 17.6477 13.7937 17.4937 13.851 17.3345L14.502 15.5252L20.3201 9.70711Z" fill="black"/>
</svg>
